<svg width="28" height="30" viewBox="0 0 28 30" fill="none" xmlns="http://www.w3.org/2000/svg">
<rect x="2" y="9" width="24" height="6" fill="#F45050" fill-opacity="0.4"/>
<rect x="3" y="15" width="22" height="13" rx="1" fill="#FFC6C6"/>
<path fill-rule="evenodd" clip-rule="evenodd" d="M2.95724 13.9679H3.58015H13.4213V9.44955H12.0707C11.8901 9.46382 11.7036 9.46382 11.5133 9.44955H2.95335C2.7335 9.44955 2.53375 9.53905 2.38913 9.68335C2.24515 9.82797 2.15565 10.0277 2.15565 10.2473V13.1698C2.15565 13.39 2.24515 13.5894 2.38913 13.7341C2.53375 13.878 2.7335 13.9679 2.95335 13.9679H2.95724ZM8.48045 8.20373C8.21001 8.00107 7.94573 7.77602 7.69216 7.5286C7.64417 7.48191 7.59682 7.43457 7.55078 7.38723C6.64575 6.45983 6.04975 5.39786 5.81758 4.4202C5.56109 3.3391 5.73489 2.33744 6.39996 1.65648L6.40482 1.64902L6.43401 1.61951L6.44114 1.61466C7.14253 0.930463 8.19671 0.755021 9.33294 1.02416C10.3667 1.26931 11.4893 1.89255 12.4556 2.83519C12.5036 2.88221 12.5509 2.92955 12.5976 2.97721C13.1058 3.49831 13.5169 4.06156 13.8204 4.6287C14.124 4.06156 14.5345 3.49831 15.0429 2.97721C15.0893 2.92987 15.137 2.88188 15.185 2.83519C16.1513 1.89255 17.2739 1.26931 18.3076 1.02416C19.4438 0.755021 20.498 0.930463 21.1994 1.61466L21.2069 1.61951L21.2361 1.6487L21.2409 1.65583C21.906 2.33743 22.0801 3.33878 21.8233 4.41988C21.5911 5.39819 20.9951 6.45983 20.0898 7.38723C20.0434 7.43457 19.9964 7.48159 19.9487 7.52828C19.6952 7.7757 19.4309 8.00073 19.1604 8.20339H25.1357C25.6967 8.20339 26.2074 8.43331 26.5774 8.8033L26.5796 8.80589C26.9496 9.17588 27.1795 9.68627 27.1795 10.2473V13.1698C27.1795 13.7328 26.9496 14.2438 26.5796 14.6141C26.3513 14.8421 26.0692 15.0172 25.7547 15.1177V16.9297V20.1211V26.3713C25.7547 27.1256 25.4453 27.8127 24.9466 28.3117L24.9479 28.313C24.4502 28.8104 23.7627 29.1198 23.0062 29.1198H5.0828C4.32629 29.1198 3.63852 28.8104 3.1411 28.313C2.64335 27.8153 2.334 27.1278 2.334 26.3713V20.1211V16.9297V15.1174C2.02076 15.0165 1.73962 14.8418 1.51134 14.6141L1.50907 14.6115C1.13908 14.2412 0.90918 13.7308 0.90918 13.1698V10.2473C0.90918 9.68627 1.13908 9.17555 1.50907 8.80589L1.51134 8.8033C1.88165 8.43331 2.39204 8.20339 2.95302 8.20339H8.48045V8.20373ZM16.1266 9.44987C15.9366 9.46414 15.7505 9.46414 15.5705 9.44987H14.6674V13.9682H24.5082H25.1311H25.1353C25.3542 13.9682 25.5537 13.878 25.6983 13.7331C25.8432 13.5885 25.933 13.389 25.933 13.1702V10.2476C25.933 10.028 25.8435 9.82829 25.6992 9.68367C25.5546 9.53969 25.3549 9.44987 25.135 9.44987H16.1266ZM24.5082 15.214H14.6674V27.8736H23.0056C23.418 27.8736 23.7939 27.7047 24.0662 27.432H24.0685C24.3396 27.1612 24.5079 26.7857 24.5079 26.3713V20.1211V16.9297L24.5082 15.214ZM13.4213 27.8736V15.214H3.58048V16.9297V20.1211V26.3713C3.58048 26.7838 3.75007 27.1593 4.02245 27.432C4.29483 27.7047 4.67066 27.8736 5.08312 27.8736H13.4213ZM11.5525 8.20373H12.0311C12.3557 8.16871 12.6317 8.05779 12.8334 7.86421L12.8324 7.86324L12.8619 7.83373L12.8629 7.83472C13.0818 7.60643 13.1901 7.28346 13.1975 6.90439C13.1972 6.87748 13.1972 6.85023 13.1975 6.82299C13.1943 6.63654 13.1674 6.43778 13.1184 6.23122C12.9352 5.45882 12.4501 4.60568 11.7069 3.84399C11.6683 3.80475 11.6287 3.76518 11.5892 3.72626C10.7886 2.94543 9.87543 2.4331 9.04596 2.23659C8.3235 2.06538 7.68956 2.13964 7.31439 2.4999L7.31536 2.50121L7.28618 2.53038L7.2852 2.52941C6.94505 2.88416 6.87177 3.4675 7.03001 4.13322C7.21354 4.90594 7.69864 5.7591 8.44186 6.52079C8.48012 6.56003 8.51936 6.59925 8.55892 6.63784C9.3592 7.41867 10.2727 7.93102 11.1021 8.12785C11.2565 8.16449 11.4076 8.18979 11.5525 8.20373ZM15.6091 8.20373H16.088C16.233 8.18979 16.3841 8.16449 16.5388 8.12785C17.3682 7.93135 18.2814 7.41867 19.082 6.63784C19.1215 6.59925 19.1608 6.56035 19.1987 6.52111C19.9422 5.75909 20.4273 4.90562 20.6109 4.13322C20.7691 3.46718 20.6958 2.88416 20.3557 2.52941L20.3547 2.53038L20.3255 2.50121L20.3265 2.4999C19.9513 2.13997 19.3174 2.06538 18.5949 2.23659C17.7655 2.43277 16.852 2.94511 16.0517 3.72626C16.0115 3.76518 15.9723 3.80474 15.9337 3.8443C15.1905 4.606 14.7054 5.45914 14.5222 6.23154C14.4732 6.43712 14.4466 6.63492 14.4427 6.8204C14.443 6.84861 14.443 6.87651 14.4427 6.90439C14.4498 7.28346 14.5581 7.60643 14.7773 7.83472L14.7783 7.83373L14.8078 7.86324L14.8069 7.86421C15.0086 8.05779 15.2848 8.16871 15.6091 8.20373Z" fill="#F45050"/>
</svg>
